<?xml version="1.0" encoding="UTF-8"?>
<svg version="1.1" xmlns="http://www.w3.org/2000/svg" width="150" height="150">
<path d="M0 0 C0.88184967 -0.0065712 1.76369934 -0.0131424 2.67227173 -0.01991272 C5.58929536 -0.03961378 8.50626751 -0.05130276 11.42333984 -0.0612793 C12.92160875 -0.06739259 12.92160875 -0.06739259 14.45014572 -0.07362938 C19.73954816 -0.09447898 25.02892475 -0.10878412 30.31835938 -0.11816406 C35.76551824 -0.12921122 41.21226667 -0.16359494 46.65928078 -0.20333576 C50.86136604 -0.22955946 55.06335449 -0.23786113 59.26551437 -0.24144554 C61.27244201 -0.24629855 63.27936569 -0.25787559 65.28621292 -0.27648354 C79.45639038 -0.39968014 90.27187194 0.30254494 101.25927734 10.17700195 C108.56327058 17.36264345 112.33220325 25.14403681 112.4281311 35.40203857 C112.43082001 36.23221497 112.43350891 37.06239136 112.4362793 37.91772461 C112.44285049 38.79957428 112.44942169 39.68142395 112.45619202 40.58999634 C112.47589308 43.50701997 112.48758206 46.42399212 112.49755859 49.34106445 C112.50163412 50.33991039 112.50570965 51.33875633 112.50990868 52.36787033 C112.53075828 57.65727277 112.54506342 62.94664936 112.55444336 68.23608398 C112.56549051 73.68324284 112.59987423 79.12999128 112.63961506 84.57700539 C112.66583876 88.77909065 112.67414043 92.9810791 112.67772484 97.18323898 C112.68257784 99.19016662 112.69415489 101.1970903 112.71276283 103.20393753 C112.83595944 117.37411499 112.13373436 128.18959655 102.25927734 139.17700195 C95.07363585 146.48099519 87.29224249 150.24992786 77.03424072 150.34585571 C76.20406433 150.34854462 75.37388794 150.35123352 74.51855469 150.35400391 C73.63670502 150.3605751 72.75485535 150.3671463 71.84628296 150.37391663 C68.92925933 150.39361768 66.01228718 150.40530667 63.09521484 150.4152832 C62.0963689 150.41935873 61.09752296 150.42343426 60.06840897 150.42763329 C54.77900653 150.44848289 49.48962993 150.46278803 44.20019531 150.47216797 C38.75303645 150.48321512 33.30628802 150.51759884 27.85927391 150.55733967 C23.65718864 150.58356337 19.4552002 150.59186504 15.25304031 150.59544945 C13.24611268 150.60030245 11.239189 150.6118795 9.23234177 150.63048744 C-4.93783569 150.75368405 -15.75331725 150.05145896 -26.74072266 140.17700195 C-34.0447159 132.99136046 -37.81364857 125.2099671 -37.90957642 114.95196533 C-37.91226532 114.12178894 -37.91495422 113.29161255 -37.91772461 112.4362793 C-37.92429581 111.55442963 -37.930867 110.67257996 -37.93763733 109.76400757 C-37.95733839 106.84698394 -37.96902737 103.93001178 -37.97900391 101.01293945 C-37.98307943 100.01409351 -37.98715496 99.01524757 -37.99135399 97.98613358 C-38.01220359 92.69673114 -38.02650873 87.40735454 -38.03588867 82.11791992 C-38.04693583 76.67076106 -38.08131955 71.22401263 -38.12106037 65.77699852 C-38.14728407 61.57491325 -38.15558574 57.37292481 -38.15917015 53.17076492 C-38.16402316 51.16383729 -38.1756002 49.15691361 -38.19420815 47.15006638 C-38.31740475 32.97988892 -37.61517967 22.16440736 -27.74072266 11.17700195 C-19.6283798 2.93104404 -11.40368167 0.03693601 0 0 Z " fill="#252938" transform="translate(37.74072265625,-0.177001953125)"/>
<path d="M0 0 C5.94 0 11.88 0 18 0 C18.33 9.9 18.66 19.8 19 30 C23.47248146 23.92738706 23.47248146 23.92738706 27.94458008 17.85449219 C28.50556396 17.09297852 29.06654785 16.33146484 29.64453125 15.546875 C30.21534424 14.77182617 30.78615723 13.99677734 31.37426758 13.19824219 C32.90728679 11.12536263 34.45047512 9.06056024 36 7 C40.50343911 7.5112012 42.87525426 9.17521358 46.3125 12.0625 C47.63701172 13.16271484 47.63701172 13.16271484 48.98828125 14.28515625 C49.65214844 14.85105469 50.31601563 15.41695312 51 16 C49.72192533 19.49938071 48.23646092 22.32256131 46.03125 25.3203125 C45.46019531 26.10277344 44.88914062 26.88523437 44.30078125 27.69140625 C43.70652344 28.49449219 43.11226563 29.29757813 42.5 30.125 C41.32256919 31.73151622 40.1454719 33.33827695 38.96875 34.9453125 C38.18661133 36.00516357 38.18661133 36.00516357 37.38867188 37.08642578 C36.22011175 38.69668849 35.10362741 40.34455889 34 42 C34.825 41.68546875 35.65 41.3709375 36.5 41.046875 C45.56586242 37.68764919 54.58762193 35.22924744 64 33 C65.65 38.61 67.3 44.22 69 50 C45.6 59 45.6 59 39 59 C39 59.66 39 60.32 39 61 C40.65708984 61.13921875 40.65708984 61.13921875 42.34765625 61.28125 C47.63957449 61.94376037 52.44534964 63.68400959 57.4375 65.5 C58.34693359 65.82097656 59.25636719 66.14195313 60.19335938 66.47265625 C66.84838669 68.84838669 66.84838669 68.84838669 68 70 C67.5670859 76.06079747 66.05786964 81.30753952 64 87 C57.11357167 85.60152532 50.58173303 83.64985223 43.9375 81.375 C42.49600586 80.88773438 42.49600586 80.88773438 41.02539062 80.390625 C38.68215356 79.59788808 36.34043824 78.80095424 34 78 C37.94979033 84.06730967 42.10003306 89.84029635 46.65039062 95.46679688 C48.8290712 98.22601409 50.54499124 100.4543657 51 104 C49.09450404 105.53698023 47.17776407 107.05391254 45.25 108.5625 C44.71117188 109.00013672 44.17234375 109.43777344 43.6171875 109.88867188 C39.67812281 112.93904514 39.67812281 112.93904514 36.9140625 113.1875 C33.8401216 111.28040197 32.09773543 108.39049561 30.125 105.4375 C26.52862337 100.19042053 22.8236303 95.09817373 19 90 C18.67 99.9 18.34 109.8 18 120 C12.06 120 6.12 120 0 120 C-0.33 110.1 -0.66 100.2 -1 90 C-5.47248146 96.07261294 -5.47248146 96.07261294 -9.94458008 102.14550781 C-10.50556396 102.90702148 -11.06654785 103.66853516 -11.64453125 104.453125 C-12.21534424 105.22817383 -12.78615723 106.00322266 -13.37426758 106.80175781 C-14.90728679 108.87463737 -16.45047512 110.93943976 -18 113 C-22.00735217 112.39889717 -24.55469371 110.33397972 -27.75 107.9375 C-29.22726563 106.83728516 -29.22726563 106.83728516 -30.734375 105.71484375 C-31.48203125 105.14894531 -32.2296875 104.58304687 -33 104 C-31.68707558 100.35985583 -30.10092153 97.51369815 -27.77734375 94.42578125 C-27.15666016 93.59369141 -26.53597656 92.76160156 -25.89648438 91.90429688 C-25.25001953 91.04900391 -24.60355469 90.19371094 -23.9375 89.3125 C-22.65370245 87.60119404 -21.37109002 85.88899817 -20.08984375 84.17578125 C-19.52128662 83.42208252 -18.95272949 82.66838379 -18.36694336 81.8918457 C-16.95570353 80.04585799 -16.95570353 80.04585799 -16 78 C-16.83660156 78.31453125 -17.67320313 78.6290625 -18.53515625 78.953125 C-27.25586448 82.15940975 -35.98589958 84.7401625 -45 87 C-47.32330984 81.39473306 -49.46745644 75.87475032 -51 70 C-44.96134957 67.4016384 -38.82779801 65.22526986 -32.5625 63.25 C-31.86447266 63.02739502 -31.16644531 62.80479004 -30.44726562 62.57543945 C-27.52050519 61.66741702 -25.08326098 61 -22 61 C-22 60.34 -22 59.68 -22 59 C-23.27875 58.79375 -24.5575 58.5875 -25.875 58.375 C-31.22563494 57.30178462 -36.3755725 55.73679385 -41.5625 54.0625 C-42.37251465 53.80968262 -43.1825293 53.55686523 -44.01708984 53.29638672 C-46.04500276 52.62500931 -48.02822211 51.82174837 -50 51 C-51.35814777 46.9255567 -49.94745762 44.18531884 -48.5625 40.3125 C-48.31951172 39.61060547 -48.07652344 38.90871094 -47.82617188 38.18554688 C-47.2255056 36.45421468 -46.61380281 34.72671863 -46 33 C-39.11357167 34.39847468 -32.58173303 36.35014777 -25.9375 38.625 C-24.97650391 38.94984375 -24.01550781 39.2746875 -23.02539062 39.609375 C-20.68215356 40.40211192 -18.34043824 41.19904576 -16 42 C-21.55370771 33.91369872 -27.18736233 25.90328664 -33 18 C-31.50807246 14.21989145 -29.41440807 12.50570301 -26.125 10.1875 C-24.82949219 9.24970703 -24.82949219 9.24970703 -23.5078125 8.29296875 C-21 7 -21 7 -19.03881836 7.17578125 C-16.38160995 8.24999219 -15.50406696 9.55340616 -13.87109375 11.89453125 C-13.31099609 12.68537109 -12.75089844 13.47621094 -12.17382812 14.29101562 C-11.60083984 15.12310547 -11.02785156 15.95519531 -10.4375 16.8125 C-9.29041797 18.44404795 -8.14328429 20.07555959 -6.99609375 21.70703125 C-6.49263428 22.4338208 -5.9891748 23.16061035 -5.47045898 23.90942383 C-4.02160103 25.96928945 -2.51102775 27.98529633 -1 30 C-0.67 20.1 -0.34 10.2 0 0 Z " fill="#F3F3F3" transform="translate(66,15)"/>
<path d="M0 0 C8 8 8 8 8 11 C10.75431153 8.39870577 13.19641174 5.86603183 15.25 2.6875 C16.11625 1.3571875 16.11625 1.3571875 17 0 C17.33 0 17.66 0 18 0 C18 4.62 18 9.24 18 14 C21.2484375 12.824375 21.2484375 12.824375 24.5625 11.625 C29.34026102 9.89590553 34.11036414 8.37679188 39 7 C40.88278037 6.42864745 42.76416929 5.85269959 44.64453125 5.2734375 C45.65064453 4.9640625 46.65675781 4.6546875 47.69335938 4.3359375 C49.79282351 3.68913953 51.89177353 3.04067065 53.99023438 2.390625 C54.98990234 2.08382812 55.98957031 1.77703125 57.01953125 1.4609375 C57.92807861 1.18040527 58.83662598 0.89987305 59.77270508 0.61083984 C62 0 62 0 64 0 C65.65 5.61 67.3 11.22 69 17 C45.6 26 45.6 26 39 26 C39 26.66 39 27.32 39 28 C40.65708984 28.13921875 40.65708984 28.13921875 42.34765625 28.28125 C47.63957449 28.94376037 52.44534964 30.68400959 57.4375 32.5 C58.34693359 32.82097656 59.25636719 33.14195313 60.19335938 33.47265625 C66.84838669 35.84838669 66.84838669 35.84838669 68 37 C67.5670859 43.06079747 66.05786964 48.30753952 64 54 C57.87170608 52.74584647 51.96440703 51.14213217 46.02734375 49.1796875 C45.21882462 48.91616486 44.41030548 48.65264221 43.57728577 48.38113403 C41.02938146 47.5496985 38.48342939 46.7124609 35.9375 45.875 C34.19609005 45.30560253 32.45455464 44.73658862 30.71289062 44.16796875 C26.47379889 42.78307019 22.23644607 41.39296966 18 40 C18 44.62 18 49.24 18 54 C14.71635801 50.71635801 12.53650825 47.80476238 10 44 C9.34 43.67 8.68 43.34 8 43 C7.773125 43.515625 7.54625 44.03125 7.3125 44.5625 C5.51018245 47.90966116 3.38717496 51.03890492 1 54 C0.67 54 0.34 54 0 54 C0 49.38 0 44.76 0 40 C-1.93875 40.680625 -3.8775 41.36125 -5.875 42.0625 C-7.89548723 42.77181998 -9.93560025 43.43100339 -12 44 C-12.66 43.67 -13.32 43.34 -14 43 C-11.36 39.04 -8.72 35.08 -6 31 C-7.60875 30.690625 -9.2175 30.38125 -10.875 30.0625 C-15.75 29.125 -15.75 29.125 -18 28 C-18 27.34 -18 26.68 -18 26 C-14.37 24.68 -10.74 23.36 -7 22 C-7.928125 20.39125 -7.928125 20.39125 -8.875 18.75 C-10.34230764 16.20666676 -11.7054936 13.63566168 -13 11 C-11.56206608 11.31049726 -10.1246682 11.6234776 -8.6875 11.9375 C-7.88699219 12.11152344 -7.08648437 12.28554688 -6.26171875 12.46484375 C-4 13 -4 13 -1 14 C-0.67 9.38 -0.34 4.76 0 0 Z " fill="#F0F1F1" transform="translate(66,48)"/>
<path d="M0 0 C8 8 8 8 8 11 C10.75431153 8.39870577 13.19641174 5.86603183 15.25 2.6875 C16.11625 1.3571875 16.11625 1.3571875 17 0 C17.33 0 17.66 0 18 0 C18 4.62 18 9.24 18 14 C20.908125 12.9790625 20.908125 12.9790625 23.875 11.9375 C25.89548723 11.22818002 27.93560025 10.56899661 30 10 C30.66 10.33 31.32 10.66 32 11 C31.50628906 11.69867188 31.01257813 12.39734375 30.50390625 13.1171875 C29.54291016 14.48230469 29.54291016 14.48230469 28.5625 15.875 C27.60537109 17.23238281 27.60537109 17.23238281 26.62890625 18.6171875 C25.00481862 20.87738581 25.00481862 20.87738581 24 23 C24.61488281 23.13277344 25.22976562 23.26554687 25.86328125 23.40234375 C27.07564453 23.66724609 27.07564453 23.66724609 28.3125 23.9375 C29.11300781 24.11152344 29.91351563 24.28554687 30.73828125 24.46484375 C33 25 33 25 36 26 C36 26.66 36 27.32 36 28 C34.56445975 28.50559908 33.1264798 29.0042749 31.6875 29.5 C30.88699219 29.7784375 30.08648437 30.056875 29.26171875 30.34375 C27 31 27 31 24 31 C24.5053125 31.69867188 25.010625 32.39734375 25.53125 33.1171875 C26.1809375 34.02726562 26.830625 34.93734375 27.5 35.875 C28.47453125 37.23238281 28.47453125 37.23238281 29.46875 38.6171875 C31 41 31 41 31 43 C26.29284832 42.4351418 22.57427092 41.52475697 18 40 C18 44.62 18 49.24 18 54 C14.71635801 50.71635801 12.53650825 47.80476238 10 44 C9.34 43.67 8.68 43.34 8 43 C7.773125 43.515625 7.54625 44.03125 7.3125 44.5625 C5.51018245 47.90966116 3.38717496 51.03890492 1 54 C0.67 54 0.34 54 0 54 C0 49.38 0 44.76 0 40 C-1.93875 40.680625 -3.8775 41.36125 -5.875 42.0625 C-7.89548723 42.77181998 -9.93560025 43.43100339 -12 44 C-12.66 43.67 -13.32 43.34 -14 43 C-11.36 39.04 -8.72 35.08 -6 31 C-7.60875 30.690625 -9.2175 30.38125 -10.875 30.0625 C-15.75 29.125 -15.75 29.125 -18 28 C-18 27.34 -18 26.68 -18 26 C-14.37 24.68 -10.74 23.36 -7 22 C-7.928125 20.39125 -7.928125 20.39125 -8.875 18.75 C-10.34230764 16.20666676 -11.7054936 13.63566168 -13 11 C-11.56206608 11.31049726 -10.1246682 11.6234776 -8.6875 11.9375 C-7.88699219 12.11152344 -7.08648437 12.28554688 -6.26171875 12.46484375 C-4 13 -4 13 -1 14 C-0.67 9.38 -0.34 4.76 0 0 Z " fill="#282D3B" transform="translate(66,48)"/>
</svg>
