<svg xmlns="http://www.w3.org/2000/svg" viewBox="-3 -3 30 30"><g id="deeditor_bgCarrier" stroke-width="0">
    <rect id="dee_c_e" x="-3" y="-3" width="30" height="30" rx="0" fill="#242938" strokewidth="0"/>
  </g><path d="M18.263.007c-3.121-.147-5.744 2.109-6.192 5.082-.018.138-.045.272-.067.405-.696 3.703-3.936 6.507-7.827 6.507a7.9 7.9 0 0 1-3.825-.979.202.202 0 0 0-.302.178V24H12v-8.999c0-1.656 1.338-3 2.987-3h2.988c3.382 0 6.103-2.817 5.97-6.244-.12-3.084-2.61-5.603-5.682-5.75" fill="#f6f6fa"/></svg>