<?xml version="1.0" encoding="UTF-8"?>
<svg version="1.1" xmlns="http://www.w3.org/2000/svg" width="150" height="150">
<path d="M0 0 C0.88184967 -0.0065712 1.76369934 -0.0131424 2.67227173 -0.01991272 C5.58929536 -0.03961378 8.50626751 -0.05130276 11.42333984 -0.0612793 C12.92160875 -0.06739259 12.92160875 -0.06739259 14.45014572 -0.07362938 C19.73954816 -0.09447898 25.02892475 -0.10878412 30.31835938 -0.11816406 C35.76551824 -0.12921122 41.21226667 -0.16359494 46.65928078 -0.20333576 C50.86136604 -0.22955946 55.06335449 -0.23786113 59.26551437 -0.24144554 C61.27244201 -0.24629855 63.27936569 -0.25787559 65.28621292 -0.27648354 C79.45639038 -0.39968014 90.27187194 0.30254494 101.25927734 10.17700195 C108.56327058 17.36264345 112.33220325 25.14403681 112.4281311 35.40203857 C112.43082001 36.23221497 112.43350891 37.06239136 112.4362793 37.91772461 C112.44285049 38.79957428 112.44942169 39.68142395 112.45619202 40.58999634 C112.47589308 43.50701997 112.48758206 46.42399212 112.49755859 49.34106445 C112.50163412 50.33991039 112.50570965 51.33875633 112.50990868 52.36787033 C112.53075828 57.65727277 112.54506342 62.94664936 112.55444336 68.23608398 C112.56549051 73.68324284 112.59987423 79.12999128 112.63961506 84.57700539 C112.66583876 88.77909065 112.67414043 92.9810791 112.67772484 97.18323898 C112.68257784 99.19016662 112.69415489 101.1970903 112.71276283 103.20393753 C112.83595944 117.37411499 112.13373436 128.18959655 102.25927734 139.17700195 C95.07363585 146.48099519 87.29224249 150.24992786 77.03424072 150.34585571 C76.20406433 150.34854462 75.37388794 150.35123352 74.51855469 150.35400391 C73.63670502 150.3605751 72.75485535 150.3671463 71.84628296 150.37391663 C68.92925933 150.39361768 66.01228718 150.40530667 63.09521484 150.4152832 C62.0963689 150.41935873 61.09752296 150.42343426 60.06840897 150.42763329 C54.77900653 150.44848289 49.48962993 150.46278803 44.20019531 150.47216797 C38.75303645 150.48321512 33.30628802 150.51759884 27.85927391 150.55733967 C23.65718864 150.58356337 19.4552002 150.59186504 15.25304031 150.59544945 C13.24611268 150.60030245 11.239189 150.6118795 9.23234177 150.63048744 C-4.93783569 150.75368405 -15.75331725 150.05145896 -26.74072266 140.17700195 C-34.0447159 132.99136046 -37.81364857 125.2099671 -37.90957642 114.95196533 C-37.91226532 114.12178894 -37.91495422 113.29161255 -37.91772461 112.4362793 C-37.92429581 111.55442963 -37.930867 110.67257996 -37.93763733 109.76400757 C-37.95733839 106.84698394 -37.96902737 103.93001178 -37.97900391 101.01293945 C-37.98307943 100.01409351 -37.98715496 99.01524757 -37.99135399 97.98613358 C-38.01220359 92.69673114 -38.02650873 87.40735454 -38.03588867 82.11791992 C-38.04693583 76.67076106 -38.08131955 71.22401263 -38.12106037 65.77699852 C-38.14728407 61.57491325 -38.15558574 57.37292481 -38.15917015 53.17076492 C-38.16402316 51.16383729 -38.1756002 49.15691361 -38.19420815 47.15006638 C-38.31740475 32.97988892 -37.61517967 22.16440736 -27.74072266 11.17700195 C-19.6283798 2.93104404 -11.40368167 0.03693601 0 0 Z " fill="#242938" transform="translate(37.74072265625,-0.177001953125)"/>
<path d="M0 0 C2.03527171 1.48540468 3.94039505 3.04355293 5.83203125 4.70703125 C7.19328125 5.88265625 7.19328125 5.88265625 8.58203125 7.08203125 C14.14243183 13.56916526 16.21269868 20.54632069 16.11328125 28.984375 C15.38379707 36.04618713 11.92262807 43.69003342 6.83203125 48.70703125 C3.62571945 50.9644833 0.30142556 52.88489407 -3.16796875 54.70703125 C-3.75723145 55.05741455 -4.34649414 55.40779785 -4.95361328 55.76879883 C-7.74785758 56.95273277 -9.96856063 56.96281498 -13 56.98046875 C-14.12857422 57.00109375 -15.25714844 57.02171875 -16.41992188 57.04296875 C-18.78182925 57.06888106 -21.14383306 57.08718744 -23.50585938 57.09765625 C-30.22278223 57.23528244 -34.82184213 57.4622213 -40.16796875 61.70703125 C-44.2794378 66.51999761 -43.64413021 72.13051192 -43.6796875 78.1328125 C-43.69632446 79.11068726 -43.71296143 80.08856201 -43.73010254 81.09606934 C-43.78778773 84.73700616 -43.82012596 88.37830901 -43.85546875 92.01953125 C-43.95859375 100.16640625 -44.06171875 108.31328125 -44.16796875 116.70703125 C-63.96796875 116.70703125 -83.76796875 116.70703125 -104.16796875 116.70703125 C-104.16796875 95.25703125 -104.16796875 73.80703125 -104.16796875 51.70703125 C-99.21796875 53.19203125 -99.21796875 53.19203125 -94.16796875 54.70703125 C-81.72244065 57.19613687 -71.59500947 55.63774656 -60.59765625 49.203125 C-50.56220311 42.14428932 -46.89941467 32.63580642 -44.00415039 21.20874023 C-41.46574411 11.48041401 -36.92170987 4.86991826 -28.16796875 -0.29296875 C-19.69178078 -4.72408484 -8.35891655 -4.98522771 0 0 Z " fill="#F4F4F8" transform="translate(119.16796875,18.29296875)"/>
</svg>
